# xmcd
#
# Track frame offsets:
#	150
#	12673
#	24552
#	36869
#	49961
#	63070
#	75493
#	87736
#	98737
#	111971
#	122899
#	133733
#	147435
#	160073
#	172304
#
# Disc length: 2463 seconds
#
# Revision: 0
# Processed by: cddbd v1.5PL3 Copyright (c) Steve Scherf et al.
# Submitted via: dBpowerAMP V4.0
#
DISCID=d4099d0f
DTITLE=Hank Williams Sr - Jambalaya
DYEAR=1900
DGENRE=Country
TTITLE0=Lovesick Blues
TTITLE1=You Win Again
TTITLE2=Cold Cold Heart
TTITLE3=Jambalaya
TTITLE4=Wedding Bells
TTITLE5=(Last Night) I Heard You Crying
TTITLE6=Your Cheatin Heart
TTITLE7=I'll Never Get out of This World Alive
TTITLE8=Hey Good Lookin
TTITLE9=I Can't Help It (If I'm Still in Love With You)
TTITLE10=Why Don't You Love Me
TTITLE11=Ramblin Man
TTITLE12=I Saw the Light
TTITLE13=The Lost Highway
TTITLE14=I'm So Lonesome I Could Cry
EXTD=
EXTT0=
EXTT1=
EXTT2=
EXTT3=
EXTT4=
EXTT5=
EXTT6=
EXTT7=
EXTT8=
EXTT9=
EXTT10=
EXTT11=
EXTT12=
EXTT13=
EXTT14=
PLAYORDER=
